<svg xmlns="http://www.w3.org/2000/svg" version="1.1" xmlns:xlink="http://www.w3.org/1999/xlink" xmlns:svgjs="http://svgjs.com/svgjs" width="512" height="512" x="0" y="0" viewBox="0 0 512 512" style="enable-background:new 0 0 512 512" xml:space="preserve" class=""><g><g><path stroke="#ffcc00" stroke-width="10" d="m487.976 450.258h-35.786v-192.964c0-4.143-3.358-7.5-7.5-7.5s-7.5 3.357-7.5 7.5v192.964h-110.145v-251.642c0-1.934 1.573-3.507 3.506-3.507h103.132c1.934 0 3.506 1.573 3.506 3.507v23.618c0 4.143 3.358 7.5 7.5 7.5s7.5-3.357 7.5-7.5v-23.618c0-10.205-8.302-18.507-18.506-18.507h-44.066v-55.601l89.062-43.303c4.887-2.377 7.922-7.229 7.922-12.662s-3.036-10.284-7.922-12.661l-83.828-40.759c-4.392-2.136-9.484-1.863-13.624.728-4.139 2.59-6.61 7.052-6.61 11.935v152.324h-44.066c-10.205 0-18.506 8.302-18.506 18.507v80.617h-106.639c-10.204 0-18.506 8.302-18.506 18.506v66.333h-106.639c-10.205 0-18.506 8.302-18.506 18.507v67.679h-37.73c-13.248-.001-24.025 10.776-24.025 24.023s10.777 24.023 24.024 24.023h463.951c13.247 0 24.024-10.776 24.024-24.023s-10.776-24.024-24.023-24.024zm-98.358-421.001 80.798 39.286-80.798 39.286v-39.286zm-312.863 353.322c0-1.934 1.573-3.507 3.506-3.507h106.639v19.872c0 4.143 3.358 7.5 7.5 7.5s7.5-3.357 7.5-7.5v-101.205c0-1.934 1.573-3.506 3.506-3.506h106.639v156.024h-110.145v-16.249c0-4.143-3.358-7.5-7.5-7.5s-7.5 3.357-7.5 7.5v16.249h-110.145zm411.221 100.727h-463.952c-4.976 0-9.024-4.048-9.024-9.023s4.048-9.024 9.024-9.024h463.951c4.976 0 9.024 4.049 9.024 9.024s-4.047 9.023-9.023 9.023z" fill="#ffcc00" data-original="#000000"></path></g></g></svg>