<svg xmlns="http://www.w3.org/2000/svg" xmlns:xlink="http://www.w3.org/1999/xlink" xmlns:lucid="lucid" width="3660" height="632"><g transform="translate(1807 0)" lucid:page-tab-id="0_0"><path d="M-1323.18 10.17h538.3V129.7h-538.3z" fill="none"/><use xlink:href="#a" transform="matrix(1,0,0,1,-1323.180696104719,10.173620285040144) translate(2.789930555555543 73.32465277777777)"/><use xlink:href="#b" transform="matrix(1,0,0,1,-1323.180696104719,10.173620285040144) translate(162.81597222222223 73.32465277777777)"/><use xlink:href="#c" transform="matrix(1,0,0,1,-1323.180696104719,10.173620285040144) translate(296.17100694444446 73.32465277777777)"/><path d="M712.68 217.28v-66.12" stroke="#5e5e5e" stroke-width="2" fill="none"/><path d="M713.68 218.28h-2v-1.03h2z" stroke="#5e5e5e" stroke-width=".05" fill="#5e5e5e"/><path d="M712.68 121.83l14.85 14.85-14.85 15.15-14.85-15.15z" stroke="#5e5e5e" stroke-width="2" fill="#5e5e5e"/><g fill="none"><path d="M-1423 200.9a6 6 0 0 1-6-6V84.96a6 6 0 0 1 6-6h2429.3a6 6 0 0 1 6 6V194.9a6 6 0 0 1-6 6z"/><path d="M1012.3 200.9c0-14.7-11.92-26.6-26.62-26.6h-1167.4c-14.7 0-26.63-11.93-26.63-26.64 0 14.7-11.92 26.63-26.63 26.63h-1167.4c-14.7 0-26.62 11.9-26.62 26.6" stroke="#000" stroke-width="6"/></g><use xlink:href="#a" transform="matrix(1,0,0,1,-1424.001524558483,83.9549613942844) translate(922.6189236111111 37.82465277777778)"/><use xlink:href="#d" transform="matrix(1,0,0,1,-1424.001524558483,83.9549613942844) translate(1082.6449652777778 37.82465277777778)"/><use xlink:href="#e" transform="matrix(1,0,0,1,-1424.001524558483,83.9549613942844) translate(1242.6710069444443 37.82465277777778)"/><path d="M-1557.24 219.78h825.63l-23.43 87.8h-825.63z" stroke="#5e5e5e" stroke-width="3" fill="#fcc438"/><use xlink:href="#f" transform="matrix(1,0,0,1,-1575.6560047346488,224.77642213728961) translate(246.14345486111105 52.609375)"/><path d="M-296.5 326.46H-.03v54.5h-296.5z" fill="none"/><use xlink:href="#g" transform="matrix(1,0,0,1,-296.51186673690665,326.4646618377201) translate(95.15798611111111 40.82465277777778)"/><path d="M-793.27 219.78h689.25l-23.42 87.8H-816.7z" stroke="#5e5e5e" stroke-width="3" fill="#ff8f80"/><use xlink:href="#h" transform="matrix(1,0,0,1,-811.6885731153518,224.77642213728961) translate(258.15647569444445 52.609375)"/><path d="M-125.4 219.78h689.24l-23.42 87.8h-689.24z" stroke="#5e5e5e" stroke-width="3" fill="#a3d977"/><use xlink:href="#i" transform="matrix(1,0,0,1,-143.82419242372657,224.77642213728961) translate(191.47895833333328 52.609375)"/><path d="M565 219.78h421.98l-23.4 87.8h-422z" stroke="#5e5e5e" stroke-width="3" fill="#834187"/><use xlink:href="#j" transform="matrix(1,0,0,1,546.5689243344073,224.77642213728961) translate(111.32097222222221 52.609375)"/><path d="M979.8 219.78h674.8l-23.42 87.8h-674.8z" stroke="#5e5e5e" stroke-width="3" fill="#3aa6dd"/><use xlink:href="#k" transform="matrix(1,0,0,1,961.3895020094674,224.77642213728961) translate(291.1629861111111 52.609375)"/><path d="M-1674.82 326.46h200.44v54.5h-200.44z" fill="none"/><use xlink:href="#l" transform="matrix(1,0,0,1,-1674.8184605733786,326.4646618377201) translate(47.157986111111114 40.82465277777778)"/><path d="M-965.75 326.46h296.5v54.5h-296.5z" fill="none"/><use xlink:href="#m" transform="matrix(1,0,0,1,-965.7474029764566,326.4646618377201) translate(95.15798611111111 40.82465277777778)"/><path d="M391.9 326.46h296.5v54.5H391.9z" fill="none"/><use xlink:href="#n" transform="matrix(1,0,0,1,391.90689918127407,326.4646618377201) translate(41.8159722222222 40.82465277777778)"/><g fill="none"><path d="M-1301.85 203.73a6 6 0 0 1-6-6V58.83a6 6 0 0 1 6-6h502.6a6 6 0 0 1 6 6v138.9a6 6 0 0 1-6 6z"/><path d="M-793.24 203.73c0-24.23-19.64-43.88-43.88-43.88h-169.54c-24.24 0-43.88-19.64-43.88-43.88 0 24.24-19.65 43.88-43.88 43.88h-169.55c-24.23 0-43.88 19.65-43.88 43.88" stroke="#000" stroke-width="4"/></g><path d="M-1553.3 427.64h491.6v155.9h-491.6z" fill="none"/><use xlink:href="#o" transform="matrix(1,0,0,1,-1553.2861615392362,427.6367153547921) translate(85.97395833333331 66.88020833333334)"/><use xlink:href="#p" transform="matrix(1,0,0,1,-1553.2861615392362,427.6367153547921) translate(219.32899305555554 66.88020833333334)"/><use xlink:href="#q" transform="matrix(1,0,0,1,-1553.2861615392362,427.6367153547921) translate(72.63845486111109 115.76909722222223)"/><use xlink:href="#r" transform="matrix(1,0,0,1,-1553.2861615392362,427.6367153547921) translate(259.33550347222223 115.76909722222223)"/><path d="M-1158.35 310.1v42.33a6 6 0 0 1-6 6h-137.14a6 6 0 0 0-6 6v32.46" stroke="#5e5e5e" stroke-width="2" fill="none"/><path d="M-1157.35 310.1h-2v-1h2z" stroke="#5e5e5e" stroke-width=".05" fill="#5e5e5e"/><path d="M-1307.5 426.22l-14.84-14.85 14.85-15.15 14.86 15.15z" stroke="#5e5e5e" stroke-width="2" fill="#5e5e5e"/><path d="M-1688.04 219.78h134.72l-23.4 87.8h-134.73z" stroke="#5e5e5e" stroke-width="3" fill="#99d5ca"/><path d="M-1649.18 310.1v86.8" stroke="#5e5e5e" stroke-width="2" fill="none"/><path d="M-1648.18 310.1h-2v-1h2z" stroke="#5e5e5e" stroke-width=".05" fill="#5e5e5e"/><path d="M-1649.18 426.22l-14.85-14.85 14.85-15.15 14.85 15.15z" stroke="#5e5e5e" stroke-width="2" fill="#5e5e5e"/><path d="M-1771.9 427.64h292.08v155.9h-292.07z" fill="none"/><use xlink:href="#s" transform="matrix(1,0,0,1,-1771.8869220791396,427.6367153547921) translate(39.8159722222222 66.88020833333334)"/><use xlink:href="#t" transform="matrix(1,0,0,1,-1771.8869220791396,427.6367153547921) translate(66.48697916666666 115.76909722222223)"/><path d="M-38.3 427.64h491.6V605.8H-38.3z" fill="none"/><use xlink:href="#u" transform="matrix(1,0,0,1,-38.28713059676093,427.63671535479216) translate(72.63845486111109 53.935763888888886)"/><use xlink:href="#v" transform="matrix(1,0,0,1,-38.28713059676093,427.63671535479216) translate(205.99348958333331 53.935763888888886)"/><use xlink:href="#w" transform="matrix(1,0,0,1,-38.28713059676093,427.63671535479216) translate(59.30295138888883 102.82465277777777)"/><use xlink:href="#x" transform="matrix(1,0,0,1,-38.28713059676093,427.63671535479216) translate(112.64496527777774 151.71354166666669)"/><path d="M207.5 310.1V396.88" stroke="#5e5e5e" stroke-width="2" fill="none"/><path d="M208.5 310.1h-2v-1h2z" stroke="#5e5e5e" stroke-width=".05" fill="#5e5e5e"/><path d="M207.5 426.22l-14.84-14.85 14.85-15.15 14.86 15.15z" stroke="#5e5e5e" stroke-width="2" fill="#5e5e5e"/><path d="M542.64 310.1v-1" stroke="#5e5e5e" stroke-width="2" fill="none"/><path d="M543.64 310.1h-2v-1h2z" stroke="#5e5e5e" stroke-width=".05" fill="#5e5e5e"/><path d="M543.07 323.23L538 309.1l9.27-.27z" stroke="#5e5e5e" stroke-width="2" fill="#5e5e5e"/><path d="M805.18 326.46h296.5v54.5h-296.5z" fill="none"/><use xlink:href="#y" transform="matrix(1,0,0,1,805.1803099223029,326.4646618377201) translate(41.8159722222222 40.82465277777778)"/><path d="M-147.7 310.1v-1" stroke="#5e5e5e" stroke-width="2" fill="none"/><path d="M-146.7 310.1h-2v-1h2z" stroke="#5e5e5e" stroke-width=".05" fill="#5e5e5e"/><path d="M-147.7 323.23l-4.64-14.27h9.27z" stroke="#5e5e5e" stroke-width="2" fill="#5e5e5e"/><path d="M-799.7 310.1v4.32a3.36 3.36 0 0 1-3.37 3.36h-3.35" stroke="#5e5e5e" stroke-width="2" fill="none"/><path d="M-798.7 310.1h-2v-1h2z" stroke="#5e5e5e" stroke-width=".05" fill="#5e5e5e"/><path d="M-813.8 324.32l7.6-12.93 6.14 6.93z" stroke="#5e5e5e" stroke-width="2" fill="#5e5e5e"/><path d="M-1575.9 310.1v-1" stroke="#5e5e5e" stroke-width="2" fill="none"/><path d="M-1574.9 310.1h-2v-1h1.32l.68-2.56z" stroke="#5e5e5e" stroke-width=".05" fill="#5e5e5e"/><path d="M-1575.95 323.23l-4.6-14.28 9.28.03z" stroke="#5e5e5e" stroke-width="2" fill="#5e5e5e"/><path d="M957.32 310.1v-1" stroke="#5e5e5e" stroke-width="2" fill="none"/><path d="M958.32 310.1h-2v-1h2z" stroke="#5e5e5e" stroke-width=".05" fill="#5e5e5e"/><path d="M957.03 323.23l-4.35-14.36 9.27.2z" stroke="#5e5e5e" stroke-width="2" fill="#5e5e5e"/><path d="M-744.87 427.64h549.62V539h-549.62z" fill="none"/><use xlink:href="#z" transform="matrix(1,0,0,1,-744.87203378316,427.63671535479193) translate(34.96093749999997 69.32465277777777)"/><use xlink:href="#A" transform="matrix(1,0,0,1,-744.87203378316,427.63671535479193) translate(194.98697916666666 69.32465277777777)"/><use xlink:href="#B" transform="matrix(1,0,0,1,-744.87203378316,427.63671535479193) translate(408.3550347222223 69.32465277777777)"/><path d="M-469.57 310.1v58.08a.18.18 0 0 1-.18.18.18.18 0 0 0-.2.2v28.33" stroke="#5e5e5e" stroke-width="2" fill="none"/><path d="M-468.57 310.1h-2v-1h2z" stroke="#5e5e5e" stroke-width=".05" fill="#5e5e5e"/><path d="M-469.94 426.22l-14.84-14.85 14.84-15.15 14.85 15.15z" stroke="#5e5e5e" stroke-width="2" fill="#5e5e5e"/><path d="M489.32 438.77H910v155.9H489.3z" fill="none"/><use xlink:href="#C" transform="matrix(1,0,0,1,489.3166366404912,438.77208820572986) translate(63.809461805555515 66.88020833333334)"/><use xlink:href="#D" transform="matrix(1,0,0,1,489.3166366404912,438.77208820572986) translate(143.82248263888889 115.76909722222223)"/><path d="M721.07 310.1v63.6a.24.24 0 0 1-.25.23.24.24 0 0 0-.24.24v33.85" stroke="#5e5e5e" stroke-width="2" fill="none"/><path d="M722.07 310.1h-2v-1h2z" stroke="#5e5e5e" stroke-width=".05" fill="#5e5e5e"/><path d="M720.58 437.36l-14.85-14.85 14.85-15.14 14.85 15.15z" stroke="#5e5e5e" stroke-width="2" fill="#5e5e5e"/><path d="M916.42 463.3h403v103.53h-403z" fill="none"/><use xlink:href="#E" transform="matrix(1,0,0,1,916.4224327747464,463.2878015346528) translate(28.138454861111086 40.880208333333336)"/><use xlink:href="#F" transform="matrix(1,0,0,1,916.4224327747464,463.2878015346528) translate(134.82248263888886 40.880208333333336)"/><use xlink:href="#G" transform="matrix(1,0,0,1,916.4224327747464,463.2878015346528) translate(94.8159722222222 89.76909722222223)"/><path d="M1108.75 310.1v122.44" stroke="#5e5e5e" stroke-width="2" fill="none"/><path d="M1109.75 310.1h-2v-1h2z" stroke="#5e5e5e" stroke-width=".05" fill="#5e5e5e"/><path d="M1108.75 461.87l-14.85-14.85 14.85-15.15 14.84 15.15z" stroke="#5e5e5e" stroke-width="2" fill="#5e5e5e"/><path d="M360.42 19.45h732.48V120.4H360.42z" fill="none"/><use xlink:href="#H" transform="matrix(1,0,0,1,360.41876975854456,19.453097660821463) translate(73.11892361111109 63.82465277777778)"/><use xlink:href="#I" transform="matrix(1,0,0,1,360.41876975854456,19.453097660821463) translate(233.14496527777777 63.82465277777778)"/><use xlink:href="#J" transform="matrix(1,0,0,1,360.41876975854456,19.453097660821463) translate(526.5260416666667 63.82465277777778)"/><path d="M979.27 161.25a6 6 0 0 1 6-6h54.8a6 6 0 0 1 6 6v44.4a6 6 0 0 1-6 6h-54.8a6 6 0 0 1-6-6z" stroke="#fff" stroke-width="2" fill="#fff"/><path d="M938.7 174.04a2.8 2.8 0 0 1 2.8-2.8l659.4.64a6 6 0 0 0 6-6v-4.67a3.7 3.7 0 0 1 5.35-3.28l27.75 14.1a3.04 3.04 0 0 1 0 5.4l-27.78 14.05a3.7 3.7 0 0 1-5.35-3.3v-4.68a6 6 0 0 0-6-6.02l-659.38-.64a2.8 2.8 0 0 1-2.8-2.8z" stroke="#000" stroke-opacity="0"/><path d="M1614.73 305.72a1 1 0 0 1-1-1v-82.36a1 1 0 0 1 1-1h39.9a1.86 1.86 0 0 1 1.57.84l26.84 40.5a1.5 1.5 0 0 1 0 1.67l-26.84 40.5a1.86 1.86 0 0 1-1.56.85z" stroke="#000" stroke-opacity="0" stroke-width="2" fill="#3aa6dd"/><path d="M-374.36 309.1" stroke="#000" stroke-opacity="0" stroke-width="2" fill="none"/><path d="M-377.6 309.1l-14.26 4.62v-9.27z" stroke="#000" stroke-opacity="0" stroke-width="2" fill-opacity="0"/><path d="M-1690.14 221.36h44.8l-22.57 84.68h-44.82z" fill="#99d5ca"/><path d="M1414.7 217.28v-75.4" stroke="#5e5e5e" stroke-width="2" fill="none"/><path d="M1415.7 218.28h-2v-1.03h2z" stroke="#5e5e5e" stroke-width=".05" fill="#5e5e5e"/><path d="M1414.7 112.55l14.85 14.85-14.85 15.15-14.85-15.15z" stroke="#5e5e5e" stroke-width="2" fill="#5e5e5e"/><path d="M1420.67 310.1v33a6 6 0 0 1-6 6h-246.7a6 6 0 0 1-6-6v-15.5" stroke="#000" stroke-opacity="0" stroke-width="2" fill="none"/><path d="M1161.96 312.32l4.63 14.27h-9.28z" stroke="#000" stroke-opacity="0" stroke-width="2" fill-opacity="0"/><path d="M1038.3 10.17h732.5v100.96h-732.5z" fill="none"/><g><use xlink:href="#K" transform="matrix(1,0,0,1,1038.3029102086773,10.173620285040144) translate(59.7834201388888 39.380208333333336)"/><use xlink:href="#L" transform="matrix(1,0,0,1,1038.3029102086773,10.173620285040144) translate(379.83550347222223 39.380208333333336)"/><use xlink:href="#M" transform="matrix(1,0,0,1,1038.3029102086773,10.173620285040144) translate(459.84852430555554 39.380208333333336)"/><use xlink:href="#N" transform="matrix(1,0,0,1,1038.3029102086773,10.173620285040144) translate(126.46093749999994 88.26909722222223)"/><use xlink:href="#O" transform="matrix(1,0,0,1,1038.3029102086773,10.173620285040144) translate(339.82899305555554 88.26909722222223)"/></g><path d="M1566.15 310.1v125.75" stroke="#5e5e5e" stroke-width="2" fill="none"/><path d="M1567.15 310.1h-2v-1h2z" stroke="#5e5e5e" stroke-width=".05" fill="#5e5e5e"/><path d="M1566.15 465.2l-14.85-14.85 14.85-15.15 14.85 15.15z" stroke="#5e5e5e" stroke-width="2" fill="#5e5e5e"/><path d="M1348.9 466.6h463.8v100.23h-463.8z" fill="none"/><g><use xlink:href="#E" transform="matrix(1,0,0,1,1348.8949433404537,466.61052033307396) translate(5.2964409722222 39.380208333333336)"/><use xlink:href="#P" transform="matrix(1,0,0,1,1348.8949433404537,466.61052033307396) translate(111.98046874999997 39.380208333333336)"/><use xlink:href="#M" transform="matrix(1,0,0,1,1348.8949433404537,466.61052033307396) translate(245.3355034722222 39.380208333333336)"/><use xlink:href="#Q" transform="matrix(1,0,0,1,1348.8949433404537,466.61052033307396) translate(125.3159722222222 88.26909722222223)"/></g><path d="M-1045.53 112.13v484.12a6 6 0 0 0 6 6h791.95a6 6 0 0 1 6 6v466.6M-1045.53 112.16v-1.03" stroke="#000" stroke-opacity="0" stroke-width="2" fill="none"/><path d="M-241.58 1090.13l-4.64-14.27h9.28z" stroke="#000" stroke-opacity="0" stroke-width="2" fill-opacity="0"/><path d="M-1364.94 70.65h-55.5M-1364.96 70.65h1.02" stroke="#000" stroke-opacity="0" stroke-width="2" fill="none"/><path d="M-1435.7 70.65l14.26-4.63v9.27z" stroke="#000" stroke-opacity="0" stroke-width="2" fill-opacity="0"/><path d="M1180.55 170.5v-10.26" stroke="#000" stroke-opacity="0" stroke-width="2" fill="none"/><path d="M1175.23 151.5l11.38 9.77-7.9 4.83z" stroke="#000" stroke-opacity="0" stroke-width="2" fill-opacity="0"/><defs><path fill="#333" d="M237 0v-1349h191v1193h672V0H237" id="R"/><path fill="#333" d="M1000-272c3 95 12 159 101 161 21 0 41-3 59-7V-6c-44 10-86 16-139 16-141 2-191-84-197-217h-6C748-76 648 20 446 20c-207 0-318-120-318-322 0-266 194-348 454-354l236-4c12-191-40-305-222-305-140 0-220 47-232 172l-188-17c33-204 181-292 423-292 255 0 401 118 401 364v466zm-683-27c0 109 63 184 175 182 166-3 259-96 306-217 24-65 20-120 20-200-232 7-501-28-501 235" id="S"/><path fill="#333" d="M682 16c-209 0-323-80-324-285v-671H190v-142h170l58-282h120v282h432v142H538v652c2 114 60 155 182 155 106 0 209-16 297-34v137C921-4 806 16 682 16" id="T"/><path fill="#333" d="M745-142h380V0H143v-142h422v-798H246v-142h499v940zM545-1292v-192h200v192H545" id="U"/><path fill="#333" d="M706-1102c241 0 344 136 343 381V0H868v-695c1-168-57-273-220-268-190 6-283 138-283 336V0H185c-3-360 6-732-6-1082h170c4 54 7 126 8 185h3c63-121 164-204 346-205" id="V"/><g id="a"><use transform="matrix(0.021701388888888888,0,0,0.021701388888888888,0,0)" xlink:href="#R"/><use transform="matrix(0.021701388888888888,0,0,0.021701388888888888,26.671006944444443,0)" xlink:href="#S"/><use transform="matrix(0.021701388888888888,0,0,0.021701388888888888,53.342013888888886,0)" xlink:href="#T"/><use transform="matrix(0.021701388888888888,0,0,0.021701388888888888,80.01302083333333,0)" xlink:href="#U"/><use transform="matrix(0.021701388888888888,0,0,0.021701388888888888,106.68402777777777,0)" xlink:href="#V"/></g><path fill="#333" d="M614-1226c-167 1-283 53-283 213 0 183 186 193 334 234 230 63 463 120 463 409 0 286-219 387-518 390C309 23 131-98 79-338l185-37c34 165 149 248 351 246 184-2 324-58 324-238 0-203-207-221-372-266-210-57-422-111-422-377 0-267 201-356 470-360 279-5 430 101 480 324l-188 33c-28-141-121-215-293-213" id="W"/><path fill="#333" d="M615-1102c343 0 484 203 482 560-1 347-147 562-488 562-336 0-475-219-479-562-4-349 156-560 485-560zm-8 989c240 0 301-180 301-429 0-245-55-427-290-427-236 0-299 181-299 427 0 243 61 429 288 429" id="X"/><path fill="#333" d="M473-1349c438-1 655 221 652 661C1122-268 945-8 532 0H162v-1349h311zm42 1193c308-4 416-205 418-532 2-330-131-509-459-505H353v1037h162" id="Y"/><g id="b"><use transform="matrix(0.021701388888888888,0,0,0.021701388888888888,0,0)" xlink:href="#W"/><use transform="matrix(0.021701388888888888,0,0,0.021701388888888888,26.671006944444443,0)" xlink:href="#X"/><use transform="matrix(0.021701388888888888,0,0,0.021701388888888888,53.342013888888886,0)" xlink:href="#Y"/><use transform="matrix(0.021701388888888888,0,0,0.021701388888888888,80.01302083333333,0)" xlink:href="#S"/></g><path fill="#333" d="M622-1349c296 4 497 117 497 404 0 282-193 424-485 431H353V0H162v-1349h460zm-15 684c195-3 320-88 320-277 0-184-129-255-328-254H353v531h254" id="Z"/><path fill="#333" d="M839-1102c70 0 148 7 206 17v167c-112-18-268-36-363 15-129 69-208 203-208 395V0H294c-10-367 32-789-52-1082h171c21 75 41 161 48 250h5c67-152 152-270 373-270" id="aa"/><path fill="#333" d="M617-1102c355 0 481 238 477 599H322c5 222 84 388 301 388 144 0 244-59 284-166l158 45C1002-72 854 20 623 20c-342 0-490-220-490-568 0-346 151-554 484-554zm291 461c-18-192-90-328-289-328-194 0-287 128-295 328h584" id="ab"/><path fill="#333" d="M873-819c-18-114-119-146-250-146-163 0-245 50-245 151 0 151 170 148 294 185 182 54 388 94 388 320 0 240-189 325-439 329-245 4-410-69-454-268l159-31c24 133 136 168 295 165 144-2 270-31 270-171 0-164-195-160-331-202-167-52-350-87-350-299 0-218 173-315 413-313 220 2 373 77 412 260" id="ac"/><path fill="#333" d="M865-914c-3-187-2-380-2-570h180v1261c0 76 1 155 6 223H877c-8-49-9-116-10-174h-5C801-44 708 26 530 26c-135 0-234-46-297-139s-95-232-95-419c0-377 131-566 392-566 176 0 271 63 335 184zm-286-51c-222 0-255 197-255 427 0 229 31 425 253 425 237 0 286-195 286-441 0-238-52-411-284-411" id="ad"/><g id="c"><use transform="matrix(0.021701388888888888,0,0,0.021701388888888888,0,0)" xlink:href="#Z"/><use transform="matrix(0.021701388888888888,0,0,0.021701388888888888,26.671006944444443,0)" xlink:href="#aa"/><use transform="matrix(0.021701388888888888,0,0,0.021701388888888888,53.342013888888886,0)" xlink:href="#ab"/><use transform="matrix(0.021701388888888888,0,0,0.021701388888888888,80.01302083333333,0)" xlink:href="#ac"/><use transform="matrix(0.021701388888888888,0,0,0.021701388888888888,106.68402777777777,0)" xlink:href="#U"/><use transform="matrix(0.021701388888888888,0,0,0.021701388888888888,133.35503472222223,0)" xlink:href="#ad"/><use transform="matrix(0.021701388888888888,0,0,0.021701388888888888,160.02604166666669,0)" xlink:href="#ab"/><use transform="matrix(0.021701388888888888,0,0,0.021701388888888888,186.69704861111114,0)" xlink:href="#V"/><use transform="matrix(0.021701388888888888,0,0,0.021701388888888888,213.3680555555556,0)" xlink:href="#T"/></g><path fill="#333" d="M631 20c-350 0-501-215-501-562 0-355 162-560 502-560 250 0 399 118 446 323l-192 14c-23-124-109-196-262-196-242 0-305 171-305 415 1 245 61 427 304 427 151 0 248-77 267-215l190 12C1039-107 883 20 631 20" id="ae"/><g id="d"><use transform="matrix(0.021701388888888888,0,0,0.021701388888888888,0,0)" xlink:href="#ad"/><use transform="matrix(0.021701388888888888,0,0,0.021701388888888888,26.671006944444443,0)" xlink:href="#S"/><use transform="matrix(0.021701388888888888,0,0,0.021701388888888888,53.342013888888886,0)" xlink:href="#V"/><use transform="matrix(0.021701388888888888,0,0,0.021701388888888888,80.01302083333333,0)" xlink:href="#ae"/><use transform="matrix(0.021701388888888888,0,0,0.021701388888888888,106.68402777777777,0)" xlink:href="#ab"/></g><path fill="#333" d="M528 20c-247 0-343-132-343-381v-721h180v686c-4 177 45 284 224 277 194-8 279-136 279-336v-627h181c3 360-6 732 6 1082H885c-4-54-7-126-8-185h-3C809-64 714 20 528 20" id="af"/><g id="e"><use transform="matrix(0.021701388888888888,0,0,0.021701388888888888,0,0)" xlink:href="#U"/><use transform="matrix(0.021701388888888888,0,0,0.021701388888888888,26.671006944444443,0)" xlink:href="#V"/><use transform="matrix(0.021701388888888888,0,0,0.021701388888888888,53.342013888888886,0)" xlink:href="#ac"/><use transform="matrix(0.021701388888888888,0,0,0.021701388888888888,80.01302083333333,0)" xlink:href="#T"/><use transform="matrix(0.021701388888888888,0,0,0.021701388888888888,106.68402777777777,0)" xlink:href="#aa"/><use transform="matrix(0.021701388888888888,0,0,0.021701388888888888,133.35503472222223,0)" xlink:href="#af"/><use transform="matrix(0.021701388888888888,0,0,0.021701388888888888,160.02604166666669,0)" xlink:href="#ae"/><use transform="matrix(0.021701388888888888,0,0,0.021701388888888888,186.69704861111114,0)" xlink:href="#T"/><use transform="matrix(0.021701388888888888,0,0,0.021701388888888888,213.3680555555556,0)" xlink:href="#X"/><use transform="matrix(0.021701388888888888,0,0,0.021701388888888888,240.03906250000006,0)" xlink:href="#aa"/></g><path fill="#fff" d="M1100-543c2 361-147 563-501 563-342 0-470-199-470-548v-821h295v818c3 172 13 322 183 320 173-2 198-150 198-330v-808h295v806" id="ag"/><path fill="#fff" d="M768-1103c247 0 336 167 336 416V0H824v-619c-3-164-24-273-171-273-164 0-229 142-229 312V0H143c-4-359 9-736-8-1082h268c7 63 12 146 13 215h4c67-145 160-236 348-236" id="ah"/><path fill="#fff" d="M802-909c-3-189-2-383-2-575h281v1248c-1 83 4 168 8 236H817c-9-50-14-117-15-176h-4C735-49 651 20 482 20 191 20 97-238 97-539c0-243 66-432 221-519 50-28 108-42 175-42 162 2 253 78 309 191zm-70 658c91-113 93-462 2-584-46-61-145-100-224-53-96 56-119 190-120 349 0 123 17 214 52 275 46 82 130 115 222 74 25-12 46-33 68-61" id="ai"/><path fill="#fff" d="M1113-274C1038-96 884 20 626 20c-352 0-526-209-526-566 0-358 185-556 530-556 358 0 496 251 499 615H395c5 180 68 319 245 319 102 0 186-45 208-129zM857-663c-6-177-128-307-315-247-94 30-141 121-145 247h460" id="aj"/><path fill="#fff" d="M875-1102c70 0 148 7 206 17v237c-110-17-267-37-359 15-123 69-192 207-192 395V0H250c-10-367 32-789-52-1082h271c19 69 36 149 46 228h4c52-151 151-250 356-248" id="ak"/><path fill="#fff" d="M1108-33c-3 314-178 467-492 467-243 0-400-94-447-291l281-33c17 79 82 141 174 141 176 0 212-155 205-347-2-40 5-80 0-115C773-85 665-12 501-12c-288 0-377-242-377-538 0-242 65-426 223-510 50-26 108-39 175-39 160 0 253 78 307 191h5c1-58 5-125 14-174h266c-12 335-3 703-6 1049zM811-384c25-82 27-259 1-342-30-99-77-180-190-180-172 0-205 171-205 356 0 116 18 202 54 258 48 76 129 107 221 70 62-25 96-86 119-162" id="al"/><path fill="#fff" d="M775-193C708-75 621 20 439 20 226 20 106-93 106-306c0-251 170-341 417-346l223-4c4-143-12-264-148-264-103 0-141 58-150 153l-293-14c37-219 194-321 455-321 263 0 418 130 417 390v392c1 84 5 161 89 160 21 0 42-2 62-6v152c-57 15-108 27-180 26-145 0-202-73-217-205h-6zm-256 17c168 0 234-139 227-325-166 4-347-25-347 173 0 94 33 152 120 152" id="am"/><path fill="#fff" d="M471 20c-247 0-336-169-336-415v-687h281v607c4 148 31 285 172 285 152 0 207-150 207-312v-580h281c4 359-9 736 8 1082H816c-7-63-11-146-12-215h-5C736-76 644 20 471 20" id="an"/><path fill="#fff" d="M711 13c-250 0-386-99-385-349l2-556H161v-190h181l88-282h176v282h385v190H606v530c-10 130 45 186 174 184 91-2 176-11 255-27v186C933-1 833 13 711 13" id="ao"/><g id="f"><use transform="matrix(0.021701388888888888,0,0,0.021701388888888888,0,0)" xlink:href="#ag"/><use transform="matrix(0.021701388888888888,0,0,0.021701388888888888,26.671006944444443,0)" xlink:href="#ah"/><use transform="matrix(0.021701388888888888,0,0,0.021701388888888888,53.342013888888886,0)" xlink:href="#ai"/><use transform="matrix(0.021701388888888888,0,0,0.021701388888888888,80.01302083333333,0)" xlink:href="#aj"/><use transform="matrix(0.021701388888888888,0,0,0.021701388888888888,106.68402777777777,0)" xlink:href="#ak"/><use transform="matrix(0.021701388888888888,0,0,0.021701388888888888,133.35503472222223,0)" xlink:href="#al"/><use transform="matrix(0.021701388888888888,0,0,0.021701388888888888,160.02604166666669,0)" xlink:href="#ak"/><use transform="matrix(0.021701388888888888,0,0,0.021701388888888888,186.69704861111114,0)" xlink:href="#am"/><use transform="matrix(0.021701388888888888,0,0,0.021701388888888888,213.3680555555556,0)" xlink:href="#ai"/><use transform="matrix(0.021701388888888888,0,0,0.021701388888888888,240.03906250000006,0)" xlink:href="#an"/><use transform="matrix(0.021701388888888888,0,0,0.021701388888888888,266.7100694444445,0)" xlink:href="#am"/><use transform="matrix(0.021701388888888888,0,0,0.021701388888888888,293.38107638888897,0)" xlink:href="#ao"/><use transform="matrix(0.021701388888888888,0,0,0.021701388888888888,320.0520833333334,0)" xlink:href="#aj"/></g><path fill="#333" d="M611-1370c266 0 451 106 451 368 0 147-77 243-154 327-132 144-316 255-451 395-42 44-75 87-96 134h723V0H144v-117c124-264 387-411 582-603 73-72 151-147 151-271 0-161-104-231-266-231-163 0-249 90-268 238l-184-17c35-233 185-369 452-369" id="ap"/><path fill="#333" d="M1065-1013c47 164 49 500-1 665C999-130 875 20 611 20c-377 0-484-300-487-695-2-245 41-425 141-551 77-98 191-144 352-144 261 0 386 140 448 357zM741-155c199-92 203-504 159-785-26-168-96-284-283-284-281 0-308 256-311 549-2 181 18 324 80 428 46 77 115 118 227 120 47 0 90-10 128-28" id="aq"/><g id="g"><use transform="matrix(0.021701388888888888,0,0,0.021701388888888888,0,0)" xlink:href="#ap"/><use transform="matrix(0.021701388888888888,0,0,0.021701388888888888,26.671006944444443,0)" xlink:href="#aq"/><use transform="matrix(0.021701388888888888,0,0,0.021701388888888888,53.342013888888886,0)" xlink:href="#ap"/><use transform="matrix(0.021701388888888888,0,0,0.021701388888888888,80.01302083333333,0)" xlink:href="#aq"/></g><path fill="#fff" d="M305-1169c27 366 9 780 14 1169H99v-1349h347c49 189 108 371 150 564 12 56 15 107 23 166 33-270 117-487 176-730h335V0H908c5-390-13-801 16-1169-52 285-130 541-199 809H507c-70-267-148-525-202-809" id="ar"/><path fill="#fff" d="M622-916c-112 2-200 14-200 111 0 90 89 101 168 121 234 58 514 77 514 368C1104-4 751 54 434 5 267-21 161-112 121-270l247-37c24 111 113 145 252 141 114-3 226-12 226-124 0-101-103-113-192-134-225-54-490-76-490-351 0-247 201-328 458-328 245 0 413 88 457 292l-249 26c-16-98-92-133-208-131" id="as"/><g id="h"><use transform="matrix(0.021701388888888888,0,0,0.021701388888888888,0,0)" xlink:href="#ar"/><use transform="matrix(0.021701388888888888,0,0,0.021701388888888888,26.671006944444443,0)" xlink:href="#am"/><use transform="matrix(0.021701388888888888,0,0,0.021701388888888888,53.342013888888886,0)" xlink:href="#as"/><use transform="matrix(0.021701388888888888,0,0,0.021701388888888888,80.01302083333333,0)" xlink:href="#ao"/><use transform="matrix(0.021701388888888888,0,0,0.021701388888888888,106.68402777777777,0)" xlink:href="#aj"/><use transform="matrix(0.021701388888888888,0,0,0.021701388888888888,133.35503472222223,0)" xlink:href="#ak"/><use transform="matrix(0.021701388888888888,0,0,0.021701388888888888,160.02604166666669,0)" xlink:href="#as"/></g><path fill="#fff" d="M766 0H467L3-1349h308c102 347 212 687 307 1041 91-356 204-694 304-1041h305" id="at"/><path fill="#fff" d="M616-1102c361 0 521 202 521 560 0 354-171 562-527 562C259 20 92-192 92-542c0-351 169-560 524-560zm-9 930c200-2 236-165 236-370 0-199-27-367-223-367-195 0-233 146-233 367 0 129 18 223 55 282s92 88 165 88" id="au"/><path fill="#fff" d="M794-190h353V0H118v-190h395v-1104H223v-190h571v1294" id="av"/><path fill="#fff" d="M794-190h353V0H118v-190h395v-702H223v-190h571v892zM513-1277v-207h281v207H513" id="aw"/><g id="i"><use transform="matrix(0.021701388888888888,0,0,0.021701388888888888,0,0)" xlink:href="#at"/><use transform="matrix(0.021701388888888888,0,0,0.021701388888888888,26.671006944444443,0)" xlink:href="#au"/><use transform="matrix(0.021701388888888888,0,0,0.021701388888888888,53.342013888888886,0)" xlink:href="#av"/><use transform="matrix(0.021701388888888888,0,0,0.021701388888888888,80.01302083333333,0)" xlink:href="#an"/><use transform="matrix(0.021701388888888888,0,0,0.021701388888888888,106.68402777777777,0)" xlink:href="#ah"/><use transform="matrix(0.021701388888888888,0,0,0.021701388888888888,133.35503472222223,0)" xlink:href="#ao"/><use transform="matrix(0.021701388888888888,0,0,0.021701388888888888,160.02604166666669,0)" xlink:href="#aj"/><use transform="matrix(0.021701388888888888,0,0,0.021701388888888888,186.69704861111114,0)" xlink:href="#aj"/><use transform="matrix(0.021701388888888888,0,0,0.021701388888888888,213.3680555555556,0)" xlink:href="#ak"/><use transform="matrix(0.021701388888888888,0,0,0.021701388888888888,240.03906250000006,0)" xlink:href="#aw"/><use transform="matrix(0.021701388888888888,0,0,0.021701388888888888,266.7100694444445,0)" xlink:href="#ah"/><use transform="matrix(0.021701388888888888,0,0,0.021701388888888888,293.38107638888897,0)" xlink:href="#al"/></g><path fill="#fff" d="M616-1349c316 3 526 118 526 426 0 301-201 442-514 447H431V0H136v-1349h480zm-25 646c164 1 254-62 254-215 0-157-99-200-262-202H431v417h160" id="ax"/><path fill="#fff" d="M380 206c143 0 202-71 202-216v-882H228v-190h636V13c-6 279-184 412-459 412-107 0-208-16-288-43V172c69 16 169 34 263 34zm203-1483v-207h281v207H583" id="ay"/><path fill="#fff" d="M1109-360C1066-122 902 20 624 20c-347 0-514-209-514-555 0-353 168-567 518-567 270 0 425 136 473 361l-283 14c-16-106-75-183-196-182-75 0-130 31-165 93s-52 152-52 270c0 249 74 374 221 374 120 0 188-82 201-201" id="az"/><g id="j"><use transform="matrix(0.021701388888888888,0,0,0.021701388888888888,0,0)" xlink:href="#ax"/><use transform="matrix(0.021701388888888888,0,0,0.021701388888888888,26.671006944444443,0)" xlink:href="#ak"/><use transform="matrix(0.021701388888888888,0,0,0.021701388888888888,53.342013888888886,0)" xlink:href="#au"/><use transform="matrix(0.021701388888888888,0,0,0.021701388888888888,80.01302083333333,0)" xlink:href="#ay"/><use transform="matrix(0.021701388888888888,0,0,0.021701388888888888,106.68402777777777,0)" xlink:href="#aj"/><use transform="matrix(0.021701388888888888,0,0,0.021701388888888888,133.35503472222223,0)" xlink:href="#az"/><use transform="matrix(0.021701388888888888,0,0,0.021701388888888888,160.02604166666669,0)" xlink:href="#ao"/><use transform="matrix(0.021701388888888888,0,0,0.021701388888888888,186.69704861111114,0)" xlink:href="#as"/></g><path fill="#fff" d="M157-1349h916v228H757v893h316V0H157v-228h316v-893H157v-228" id="aA"/><path fill="#fff" d="M462-1121v384h621v228H462V0H167v-1349h939v228H462" id="aB"/><path fill="#fff" d="M1229 0H935l-92-330H387L295 0H0l443-1349h344zM615-1167c-46 213-110 412-166 615h332c-56-204-119-401-166-615" id="aC"/><g id="k"><use transform="matrix(0.021701388888888888,0,0,0.021701388888888888,0,0)" xlink:href="#aA"/><use transform="matrix(0.021701388888888888,0,0,0.021701388888888888,26.671006944444443,0)" xlink:href="#aB"/><use transform="matrix(0.021701388888888888,0,0,0.021701388888888888,53.342013888888886,0)" xlink:href="#ag"/><use transform="matrix(0.021701388888888888,0,0,0.021701388888888888,80.01302083333333,0)" xlink:href="#aC"/></g><path fill="#333" d="M148-1120c216-7 379-89 463-229h166v1204h353V0H157v-145h439v-1021c-79 124-254 184-448 194v-148" id="aD"/><path fill="#333" d="M353-779c69-51 166-92 291-90 218 3 357 100 423 255 21 52 32 109 32 170 0 305-189 464-500 464-268 0-424-116-471-335l182-21c35 130 124 212 293 209 198-4 309-114 309-313 0-182-118-282-305-282-120 0-198 45-262 101H169l47-728h801v145H382" id="aE"/><g id="l"><use transform="matrix(0.021701388888888888,0,0,0.021701388888888888,0,0)" xlink:href="#ap"/><use transform="matrix(0.021701388888888888,0,0,0.021701388888888888,26.671006944444443,0)" xlink:href="#aq"/><use transform="matrix(0.021701388888888888,0,0,0.021701388888888888,53.342013888888886,0)" xlink:href="#aD"/><use transform="matrix(0.021701388888888888,0,0,0.021701388888888888,80.01302083333333,0)" xlink:href="#aE"/></g><path fill="#333" d="M141-911c0-296 172-459 469-459 157 0 276 55 356 166s121 278 121 501c-1 324-87 567-297 677-134 70-367 56-475-22-71-52-117-126-145-226l172-27c34 111 103 176 238 176 187 0 261-138 304-298 16-65 24-141 25-227-59 121-177 199-350 199-275 0-418-184-418-460zm461 318c168 0 289-96 289-269 0-158-59-275-163-332-36-20-77-30-124-30-187 0-280 125-280 313s90 318 278 318" id="aF"/><g id="m"><use transform="matrix(0.021701388888888888,0,0,0.021701388888888888,0,0)" xlink:href="#ap"/><use transform="matrix(0.021701388888888888,0,0,0.021701388888888888,26.671006944444443,0)" xlink:href="#aq"/><use transform="matrix(0.021701388888888888,0,0,0.021701388888888888,53.342013888888886,0)" xlink:href="#aD"/><use transform="matrix(0.021701388888888888,0,0,0.021701388888888888,80.01302083333333,0)" xlink:href="#aF"/></g><path fill="#333" d="M496 0v-299h235V0H496" id="aG"/><path fill="#333" d="M698-1104c312 3 392 244 392 558 0 315-82 566-392 566-169 0-277-65-331-184h-5c8 188 2 394 4 589H185V-858c0-76-1-156-6-224h175c6 52 9 120 10 178h4c58-122 150-202 330-200zm-49 991c225 0 255-203 255-433 0-225-32-419-253-419-236 0-285 192-285 441 0 237 53 411 283 411" id="aH"/><g id="n"><use transform="matrix(0.021701388888888888,0,0,0.021701388888888888,0,0)" xlink:href="#ap"/><use transform="matrix(0.021701388888888888,0,0,0.021701388888888888,26.671006944444443,0)" xlink:href="#aq"/><use transform="matrix(0.021701388888888888,0,0,0.021701388888888888,53.342013888888886,0)" xlink:href="#ap"/><use transform="matrix(0.021701388888888888,0,0,0.021701388888888888,80.01302083333333,0)" xlink:href="#aD"/><use transform="matrix(0.021701388888888888,0,0,0.021701388888888888,106.68402777777777,0)" xlink:href="#aG"/><use transform="matrix(0.021701388888888888,0,0,0.021701388888888888,133.35503472222223,0)" xlink:href="#ac"/><use transform="matrix(0.021701388888888888,0,0,0.021701388888888888,160.02604166666669,0)" xlink:href="#ab"/><use transform="matrix(0.021701388888888888,0,0,0.021701388888888888,186.69704861111114,0)" xlink:href="#aH"/></g><g id="o"><use transform="matrix(0.021701388888888888,0,0,0.021701388888888888,0,0)" xlink:href="#ad"/><use transform="matrix(0.021701388888888888,0,0,0.021701388888888888,26.671006944444443,0)" xlink:href="#S"/><use transform="matrix(0.021701388888888888,0,0,0.021701388888888888,53.342013888888886,0)" xlink:href="#T"/><use transform="matrix(0.021701388888888888,0,0,0.021701388888888888,80.01302083333333,0)" xlink:href="#S"/></g><g id="p"><use transform="matrix(0.021701388888888888,0,0,0.021701388888888888,0,0)" xlink:href="#ac"/><use transform="matrix(0.021701388888888888,0,0,0.021701388888888888,26.671006944444443,0)" xlink:href="#ae"/><use transform="matrix(0.021701388888888888,0,0,0.021701388888888888,53.342013888888886,0)" xlink:href="#U"/><use transform="matrix(0.021701388888888888,0,0,0.021701388888888888,80.01302083333333,0)" xlink:href="#ab"/><use transform="matrix(0.021701388888888888,0,0,0.021701388888888888,106.68402777777777,0)" xlink:href="#V"/><use transform="matrix(0.021701388888888888,0,0,0.021701388888888888,133.35503472222223,0)" xlink:href="#ae"/><use transform="matrix(0.021701388888888888,0,0,0.021701388888888888,160.02604166666669,0)" xlink:href="#ab"/></g><g id="q"><use transform="matrix(0.021701388888888888,0,0,0.021701388888888888,0,0)" xlink:href="#U"/><use transform="matrix(0.021701388888888888,0,0,0.021701388888888888,26.671006944444443,0)" xlink:href="#V"/><use transform="matrix(0.021701388888888888,0,0,0.021701388888888888,53.342013888888886,0)" xlink:href="#T"/><use transform="matrix(0.021701388888888888,0,0,0.021701388888888888,80.01302083333333,0)" xlink:href="#ab"/><use transform="matrix(0.021701388888888888,0,0,0.021701388888888888,106.68402777777777,0)" xlink:href="#aa"/><use transform="matrix(0.021701388888888888,0,0,0.021701388888888888,133.35503472222223,0)" xlink:href="#V"/></g><path fill="#333" d="M891-1484c-201 251-362 514-362 954 0 441 161 704 362 955H701C500 176 342-90 342-532c0-440 159-704 359-952h190" id="aI"/><path fill="#333" d="M1069-1210C890-948 720-664 634-316c-25 105-38 210-38 316H408c9-385 153-667 302-925 57-98 120-190 185-279H158v-145h911v139" id="aJ"/><path fill="#333" d="M528-1484c201 248 357 511 357 952 0 442-156 709-357 957H336C537 174 700-89 700-530c0-440-163-703-364-954h192" id="aK"/><g id="r"><use transform="matrix(0.021701388888888888,0,0,0.021701388888888888,0,0)" xlink:href="#aI"/><use transform="matrix(0.021701388888888888,0,0,0.021701388888888888,26.671006944444443,0)" xlink:href="#ap"/><use transform="matrix(0.021701388888888888,0,0,0.021701388888888888,53.342013888888886,0)" xlink:href="#aq"/><use transform="matrix(0.021701388888888888,0,0,0.021701388888888888,80.01302083333333,0)" xlink:href="#aD"/><use transform="matrix(0.021701388888888888,0,0,0.021701388888888888,106.68402777777777,0)" xlink:href="#aJ"/><use transform="matrix(0.021701388888888888,0,0,0.021701388888888888,133.35503472222223,0)" xlink:href="#aK"/></g><path fill="#333" d="M1048-32c-2 300-135 456-433 456-222-1-358-88-400-267l184-25c22 99 100 157 222 156 184-2 248-125 248-315 0-64 3-133-2-194C807-100 706-13 524-12c-306 0-381-228-381-537 0-318 85-550 400-550 164 0 271 83 325 202h3c1-60 3-134 12-185h171c-13 339-4 702-6 1050zM585-145c210-8 284-178 284-406 0-192-52-331-177-392-33-16-69-22-104-22-223 2-259 184-259 414 0 229 31 415 256 406" id="aL"/><g id="s"><use transform="matrix(0.021701388888888888,0,0,0.021701388888888888,0,0)" xlink:href="#ab"/><use transform="matrix(0.021701388888888888,0,0,0.021701388888888888,26.671006944444443,0)" xlink:href="#V"/><use transform="matrix(0.021701388888888888,0,0,0.021701388888888888,53.342013888888886,0)" xlink:href="#aL"/><use transform="matrix(0.021701388888888888,0,0,0.021701388888888888,80.01302083333333,0)" xlink:href="#U"/><use transform="matrix(0.021701388888888888,0,0,0.021701388888888888,106.68402777777777,0)" xlink:href="#V"/><use transform="matrix(0.021701388888888888,0,0,0.021701388888888888,133.35503472222223,0)" xlink:href="#ab"/><use transform="matrix(0.021701388888888888,0,0,0.021701388888888888,160.02604166666669,0)" xlink:href="#ab"/><use transform="matrix(0.021701388888888888,0,0,0.021701388888888888,186.69704861111114,0)" xlink:href="#aa"/></g><g id="t"><use transform="matrix(0.021701388888888888,0,0,0.021701388888888888,0,0)" xlink:href="#U"/><use transform="matrix(0.021701388888888888,0,0,0.021701388888888888,26.671006944444443,0)" xlink:href="#V"/><use transform="matrix(0.021701388888888888,0,0,0.021701388888888888,53.342013888888886,0)" xlink:href="#T"/><use transform="matrix(0.021701388888888888,0,0,0.021701388888888888,80.01302083333333,0)" xlink:href="#ab"/><use transform="matrix(0.021701388888888888,0,0,0.021701388888888888,106.68402777777777,0)" xlink:href="#aa"/><use transform="matrix(0.021701388888888888,0,0,0.021701388888888888,133.35503472222223,0)" xlink:href="#V"/></g><g id="u"><use transform="matrix(0.021701388888888888,0,0,0.021701388888888888,0,0)" xlink:href="#Y"/><use transform="matrix(0.021701388888888888,0,0,0.021701388888888888,26.671006944444443,0)" xlink:href="#ab"/><use transform="matrix(0.021701388888888888,0,0,0.021701388888888888,53.342013888888886,0)" xlink:href="#ab"/><use transform="matrix(0.021701388888888888,0,0,0.021701388888888888,80.01302083333333,0)" xlink:href="#aH"/></g><g id="v"><use transform="matrix(0.021701388888888888,0,0,0.021701388888888888,0,0)" xlink:href="#R"/><use transform="matrix(0.021701388888888888,0,0,0.021701388888888888,26.671006944444443,0)" xlink:href="#ab"/><use transform="matrix(0.021701388888888888,0,0,0.021701388888888888,53.342013888888886,0)" xlink:href="#S"/><use transform="matrix(0.021701388888888888,0,0,0.021701388888888888,80.01302083333333,0)" xlink:href="#aa"/><use transform="matrix(0.021701388888888888,0,0,0.021701388888888888,106.68402777777777,0)" xlink:href="#V"/><use transform="matrix(0.021701388888888888,0,0,0.021701388888888888,133.35503472222223,0)" xlink:href="#U"/><use transform="matrix(0.021701388888888888,0,0,0.021701388888888888,160.02604166666669,0)" xlink:href="#V"/><use transform="matrix(0.021701388888888888,0,0,0.021701388888888888,186.69704861111114,0)" xlink:href="#aL"/></g><path fill="#333" d="M736-142h380V0H134v-142h422v-1200H267v-142h469v1342" id="aM"/><g id="w"><use transform="matrix(0.021701388888888888,0,0,0.021701388888888888,0,0)" xlink:href="#W"/><use transform="matrix(0.021701388888888888,0,0,0.021701388888888888,26.671006944444443,0)" xlink:href="#aH"/><use transform="matrix(0.021701388888888888,0,0,0.021701388888888888,53.342013888888886,0)" xlink:href="#ab"/><use transform="matrix(0.021701388888888888,0,0,0.021701388888888888,80.01302083333333,0)" xlink:href="#ae"/><use transform="matrix(0.021701388888888888,0,0,0.021701388888888888,106.68402777777777,0)" xlink:href="#U"/><use transform="matrix(0.021701388888888888,0,0,0.021701388888888888,133.35503472222223,0)" xlink:href="#S"/><use transform="matrix(0.021701388888888888,0,0,0.021701388888888888,160.02604166666669,0)" xlink:href="#aM"/><use transform="matrix(0.021701388888888888,0,0,0.021701388888888888,186.69704861111114,0)" xlink:href="#U"/><use transform="matrix(0.021701388888888888,0,0,0.021701388888888888,213.3680555555556,0)" xlink:href="#ac"/><use transform="matrix(0.021701388888888888,0,0,0.021701388888888888,240.03906250000006,0)" xlink:href="#S"/><use transform="matrix(0.021701388888888888,0,0,0.021701388888888888,266.7100694444445,0)" xlink:href="#T"/><use transform="matrix(0.021701388888888888,0,0,0.021701388888888888,293.38107638888897,0)" xlink:href="#U"/><use transform="matrix(0.021701388888888888,0,0,0.021701388888888888,320.0520833333334,0)" xlink:href="#X"/><use transform="matrix(0.021701388888888888,0,0,0.021701388888888888,346.7230902777779,0)" xlink:href="#V"/></g><path fill="#333" d="M650-1214c-281 0-336 244-336 533 0 295 60 546 347 546 188 0 263-142 322-282l159 65C1058-155 935 20 659 20c-401 0-546-295-546-701 0-407 135-689 536-689 264 0 391 146 466 335l-168 65c-47-129-127-244-297-244" id="aN"/><g id="x"><use transform="matrix(0.021701388888888888,0,0,0.021701388888888888,0,0)" xlink:href="#aI"/><use transform="matrix(0.021701388888888888,0,0,0.021701388888888888,26.671006944444443,0)" xlink:href="#aN"/><use transform="matrix(0.021701388888888888,0,0,0.021701388888888888,53.342013888888886,0)" xlink:href="#X"/><use transform="matrix(0.021701388888888888,0,0,0.021701388888888888,80.01302083333333,0)" xlink:href="#af"/><use transform="matrix(0.021701388888888888,0,0,0.021701388888888888,106.68402777777777,0)" xlink:href="#aa"/><use transform="matrix(0.021701388888888888,0,0,0.021701388888888888,133.35503472222223,0)" xlink:href="#ac"/><use transform="matrix(0.021701388888888888,0,0,0.021701388888888888,160.02604166666669,0)" xlink:href="#ab"/><use transform="matrix(0.021701388888888888,0,0,0.021701388888888888,186.69704861111114,0)" xlink:href="#aa"/><use transform="matrix(0.021701388888888888,0,0,0.021701388888888888,213.3680555555556,0)" xlink:href="#S"/><use transform="matrix(0.021701388888888888,0,0,0.021701388888888888,240.03906250000006,0)" xlink:href="#aK"/></g><g id="y"><use transform="matrix(0.021701388888888888,0,0,0.021701388888888888,0,0)" xlink:href="#ap"/><use transform="matrix(0.021701388888888888,0,0,0.021701388888888888,26.671006944444443,0)" xlink:href="#aq"/><use transform="matrix(0.021701388888888888,0,0,0.021701388888888888,53.342013888888886,0)" xlink:href="#ap"/><use transform="matrix(0.021701388888888888,0,0,0.021701388888888888,80.01302083333333,0)" xlink:href="#aD"/><use transform="matrix(0.021701388888888888,0,0,0.021701388888888888,106.68402777777777,0)" xlink:href="#aG"/><use transform="matrix(0.021701388888888888,0,0,0.021701388888888888,133.35503472222223,0)" xlink:href="#ad"/><use transform="matrix(0.021701388888888888,0,0,0.021701388888888888,160.02604166666669,0)" xlink:href="#ab"/><use transform="matrix(0.021701388888888888,0,0,0.021701388888888888,186.69704861111114,0)" xlink:href="#ae"/></g><path fill="#333" d="M385-1193v494h676v158H385V0H194v-1349h891v156H385" id="aO"/><g id="z"><use transform="matrix(0.021701388888888888,0,0,0.021701388888888888,0,0)" xlink:href="#aO"/><use transform="matrix(0.021701388888888888,0,0,0.021701388888888888,26.671006944444443,0)" xlink:href="#U"/><use transform="matrix(0.021701388888888888,0,0,0.021701388888888888,53.342013888888886,0)" xlink:href="#V"/><use transform="matrix(0.021701388888888888,0,0,0.021701388888888888,80.01302083333333,0)" xlink:href="#S"/><use transform="matrix(0.021701388888888888,0,0,0.021701388888888888,106.68402777777777,0)" xlink:href="#aM"/></g><path fill="#333" d="M390 276c167 0 266-82 266-251v-965H249v-142h587V28c-4 270-165 397-431 397-107 0-208-16-288-43V242c80 18 173 34 273 34zm246-1568v-192h200v192H636" id="aP"/><g id="A"><use transform="matrix(0.021701388888888888,0,0,0.021701388888888888,0,0)" xlink:href="#aH"/><use transform="matrix(0.021701388888888888,0,0,0.021701388888888888,26.671006944444443,0)" xlink:href="#aa"/><use transform="matrix(0.021701388888888888,0,0,0.021701388888888888,53.342013888888886,0)" xlink:href="#X"/><use transform="matrix(0.021701388888888888,0,0,0.021701388888888888,80.01302083333333,0)" xlink:href="#aP"/><use transform="matrix(0.021701388888888888,0,0,0.021701388888888888,106.68402777777777,0)" xlink:href="#ab"/><use transform="matrix(0.021701388888888888,0,0,0.021701388888888888,133.35503472222223,0)" xlink:href="#ae"/><use transform="matrix(0.021701388888888888,0,0,0.021701388888888888,160.02604166666669,0)" xlink:href="#T"/></g><path fill="#333" d="M285-1169c8 382 2 780 4 1169H129v-1349h237c86 239 188 461 253 720 69-258 169-481 255-720h225V0H937c2-390-5-788 6-1169-75 255-170 488-259 729H547c-90-240-185-475-262-729" id="aQ"/><g id="B"><use transform="matrix(0.021701388888888888,0,0,0.021701388888888888,0,0)" xlink:href="#aI"/><use transform="matrix(0.021701388888888888,0,0,0.021701388888888888,26.671006944444443,0)" xlink:href="#aQ"/><use transform="matrix(0.021701388888888888,0,0,0.021701388888888888,53.342013888888886,0)" xlink:href="#R"/><use transform="matrix(0.021701388888888888,0,0,0.021701388888888888,80.01302083333333,0)" xlink:href="#aK"/></g><path fill="#333" d="M875 0v-623H353V0H162v-1349h191v566h522v-566h191V0H875" id="aR"/><path fill="#333" d="M914 0L548-499l-132 98V0H236v-1484h180v927l475-525h211L663-617 1125 0H914" id="aS"/><g id="C"><use transform="matrix(0.021701388888888888,0,0,0.021701388888888888,0,0)" xlink:href="#aR"/><use transform="matrix(0.021701388888888888,0,0,0.021701388888888888,26.671006944444443,0)" xlink:href="#S"/><use transform="matrix(0.021701388888888888,0,0,0.021701388888888888,53.342013888888886,0)" xlink:href="#ae"/><use transform="matrix(0.021701388888888888,0,0,0.021701388888888888,80.01302083333333,0)" xlink:href="#aS"/><use transform="matrix(0.021701388888888888,0,0,0.021701388888888888,106.68402777777777,0)" xlink:href="#ab"/><use transform="matrix(0.021701388888888888,0,0,0.021701388888888888,133.35503472222223,0)" xlink:href="#aa"/><use transform="matrix(0.021701388888888888,0,0,0.021701388888888888,160.02604166666669,0)" xlink:href="#U"/><use transform="matrix(0.021701388888888888,0,0,0.021701388888888888,186.69704861111114,0)" xlink:href="#V"/><use transform="matrix(0.021701388888888888,0,0,0.021701388888888888,213.3680555555556,0)" xlink:href="#T"/><use transform="matrix(0.021701388888888888,0,0,0.021701388888888888,240.03906250000006,0)" xlink:href="#aa"/><use transform="matrix(0.021701388888888888,0,0,0.021701388888888888,266.7100694444445,0)" xlink:href="#X"/></g><path fill="#333" d="M912-211c-10-84-18-177-18-274v-864h172V0H836L316-1130c7 79 16 167 16 254V0H162v-1349h222" id="aT"/><g id="D"><use transform="matrix(0.021701388888888888,0,0,0.021701388888888888,0,0)" xlink:href="#aI"/><use transform="matrix(0.021701388888888888,0,0,0.021701388888888888,26.671006944444443,0)" xlink:href="#aT"/><use transform="matrix(0.021701388888888888,0,0,0.021701388888888888,53.342013888888886,0)" xlink:href="#R"/><use transform="matrix(0.021701388888888888,0,0,0.021701388888888888,80.01302083333333,0)" xlink:href="#Z"/><use transform="matrix(0.021701388888888888,0,0,0.021701388888888888,106.68402777777777,0)" xlink:href="#aK"/></g><path fill="#333" d="M202-1349h823v156H709v1037h316V0H202v-156h316v-1037H202v-156" id="aU"/><path fill="#333" d="M709-1193V0H519v-1193H76v-156h1076v156H709" id="aV"/><g id="E"><use transform="matrix(0.021701388888888888,0,0,0.021701388888888888,0,0)" xlink:href="#aU"/><use transform="matrix(0.021701388888888888,0,0,0.021701388888888888,26.671006944444443,0)" xlink:href="#X"/><use transform="matrix(0.021701388888888888,0,0,0.021701388888888888,53.342013888888886,0)" xlink:href="#aV"/></g><path fill="#333" d="M715 0H502L69-1082h202c94 253 197 500 285 758 19 57 36 126 52 183 96-335 234-626 350-941h201" id="aW"/><g id="F"><use transform="matrix(0.021701388888888888,0,0,0.021701388888888888,0,0)" xlink:href="#ad"/><use transform="matrix(0.021701388888888888,0,0,0.021701388888888888,26.671006944444443,0)" xlink:href="#ab"/><use transform="matrix(0.021701388888888888,0,0,0.021701388888888888,53.342013888888886,0)" xlink:href="#aW"/><use transform="matrix(0.021701388888888888,0,0,0.021701388888888888,80.01302083333333,0)" xlink:href="#ab"/><use transform="matrix(0.021701388888888888,0,0,0.021701388888888888,106.68402777777777,0)" xlink:href="#aM"/><use transform="matrix(0.021701388888888888,0,0,0.021701388888888888,133.35503472222223,0)" xlink:href="#X"/><use transform="matrix(0.021701388888888888,0,0,0.021701388888888888,160.02604166666669,0)" xlink:href="#aH"/><use transform="matrix(0.021701388888888888,0,0,0.021701388888888888,186.69704861111114,0)" xlink:href="#ab"/><use transform="matrix(0.021701388888888888,0,0,0.021701388888888888,213.3680555555556,0)" xlink:href="#aa"/></g><path fill="#333" d="M587-135c154 0 209-115 209-281v-777H485v-156h501v929C982-148 857 20 586 20c-254 0-368-136-410-370l187-31c24 134 77 246 224 246" id="aX"/><g id="G"><use transform="matrix(0.021701388888888888,0,0,0.021701388888888888,0,0)" xlink:href="#aI"/><use transform="matrix(0.021701388888888888,0,0,0.021701388888888888,26.671006944444443,0)" xlink:href="#aX"/><use transform="matrix(0.021701388888888888,0,0,0.021701388888888888,53.342013888888886,0)" xlink:href="#af"/><use transform="matrix(0.021701388888888888,0,0,0.021701388888888888,80.01302083333333,0)" xlink:href="#V"/><use transform="matrix(0.021701388888888888,0,0,0.021701388888888888,106.68402777777777,0)" xlink:href="#U"/><use transform="matrix(0.021701388888888888,0,0,0.021701388888888888,133.35503472222223,0)" xlink:href="#X"/><use transform="matrix(0.021701388888888888,0,0,0.021701388888888888,160.02604166666669,0)" xlink:href="#aa"/><use transform="matrix(0.021701388888888888,0,0,0.021701388888888888,186.69704861111114,0)" xlink:href="#aK"/></g><g id="H"><use transform="matrix(0.021701388888888888,0,0,0.021701388888888888,0,0)" xlink:href="#W"/><use transform="matrix(0.021701388888888888,0,0,0.021701388888888888,26.671006944444443,0)" xlink:href="#T"/><use transform="matrix(0.021701388888888888,0,0,0.021701388888888888,53.342013888888886,0)" xlink:href="#X"/><use transform="matrix(0.021701388888888888,0,0,0.021701388888888888,80.01302083333333,0)" xlink:href="#ae"/><use transform="matrix(0.021701388888888888,0,0,0.021701388888888888,106.68402777777777,0)" xlink:href="#aS"/></g><g id="I"><use transform="matrix(0.021701388888888888,0,0,0.021701388888888888,0,0)" xlink:href="#aH"/><use transform="matrix(0.021701388888888888,0,0,0.021701388888888888,26.671006944444443,0)" xlink:href="#aa"/><use transform="matrix(0.021701388888888888,0,0,0.021701388888888888,53.342013888888886,0)" xlink:href="#ab"/><use transform="matrix(0.021701388888888888,0,0,0.021701388888888888,80.01302083333333,0)" xlink:href="#ad"/><use transform="matrix(0.021701388888888888,0,0,0.021701388888888888,106.68402777777777,0)" xlink:href="#U"/><use transform="matrix(0.021701388888888888,0,0,0.021701388888888888,133.35503472222223,0)" xlink:href="#ae"/><use transform="matrix(0.021701388888888888,0,0,0.021701388888888888,160.02604166666669,0)" xlink:href="#T"/><use transform="matrix(0.021701388888888888,0,0,0.021701388888888888,186.69704861111114,0)" xlink:href="#U"/><use transform="matrix(0.021701388888888888,0,0,0.021701388888888888,213.3680555555556,0)" xlink:href="#X"/><use transform="matrix(0.021701388888888888,0,0,0.021701388888888888,240.03906250000006,0)" xlink:href="#V"/></g><g id="J"><use transform="matrix(0.021701388888888888,0,0,0.021701388888888888,0,0)" xlink:href="#aI"/><use transform="matrix(0.021701388888888888,0,0,0.021701388888888888,26.671006944444443,0)" xlink:href="#aN"/><use transform="matrix(0.021701388888888888,0,0,0.021701388888888888,53.342013888888886,0)" xlink:href="#aT"/><use transform="matrix(0.021701388888888888,0,0,0.021701388888888888,80.01302083333333,0)" xlink:href="#aT"/><use transform="matrix(0.021701388888888888,0,0,0.021701388888888888,106.68402777777777,0)" xlink:href="#aK"/></g><g id="K"><use transform="matrix(0.021701388888888888,0,0,0.021701388888888888,0,0)" xlink:href="#aO"/><use transform="matrix(0.021701388888888888,0,0,0.021701388888888888,26.671006944444443,0)" xlink:href="#aa"/><use transform="matrix(0.021701388888888888,0,0,0.021701388888888888,53.342013888888886,0)" xlink:href="#ab"/><use transform="matrix(0.021701388888888888,0,0,0.021701388888888888,80.01302083333333,0)" xlink:href="#ab"/><use transform="matrix(0.021701388888888888,0,0,0.021701388888888888,106.68402777777777,0)" xlink:href="#aM"/><use transform="matrix(0.021701388888888888,0,0,0.021701388888888888,133.35503472222223,0)" xlink:href="#S"/><use transform="matrix(0.021701388888888888,0,0,0.021701388888888888,160.02604166666669,0)" xlink:href="#V"/><use transform="matrix(0.021701388888888888,0,0,0.021701388888888888,186.69704861111114,0)" xlink:href="#ae"/><use transform="matrix(0.021701388888888888,0,0,0.021701388888888888,213.3680555555556,0)" xlink:href="#U"/><use transform="matrix(0.021701388888888888,0,0,0.021701388888888888,240.03906250000006,0)" xlink:href="#V"/><use transform="matrix(0.021701388888888888,0,0,0.021701388888888888,266.7100694444445,0)" xlink:href="#aL"/></g><g id="L"><use transform="matrix(0.021701388888888888,0,0,0.021701388888888888,0,0)" xlink:href="#aQ"/><use transform="matrix(0.021701388888888888,0,0,0.021701388888888888,26.671006944444443,0)" xlink:href="#R"/></g><path fill="#333" d="M162 0v-1349h919v156H353v422h668v154H353v461h769V0H162" id="aY"/><g id="M"><use transform="matrix(0.021701388888888888,0,0,0.021701388888888888,0,0)" xlink:href="#aY"/><use transform="matrix(0.021701388888888888,0,0,0.021701388888888888,26.671006944444443,0)" xlink:href="#V"/><use transform="matrix(0.021701388888888888,0,0,0.021701388888888888,53.342013888888886,0)" xlink:href="#aL"/><use transform="matrix(0.021701388888888888,0,0,0.021701388888888888,80.01302083333333,0)" xlink:href="#U"/><use transform="matrix(0.021701388888888888,0,0,0.021701388888888888,106.68402777777777,0)" xlink:href="#V"/><use transform="matrix(0.021701388888888888,0,0,0.021701388888888888,133.35503472222223,0)" xlink:href="#ab"/><use transform="matrix(0.021701388888888888,0,0,0.021701388888888888,160.02604166666669,0)" xlink:href="#ab"/><use transform="matrix(0.021701388888888888,0,0,0.021701388888888888,186.69704861111114,0)" xlink:href="#aa"/></g><g id="N"><use transform="matrix(0.021701388888888888,0,0,0.021701388888888888,0,0)" xlink:href="#aI"/><use transform="matrix(0.021701388888888888,0,0,0.021701388888888888,26.671006944444443,0)" xlink:href="#aT"/><use transform="matrix(0.021701388888888888,0,0,0.021701388888888888,53.342013888888886,0)" xlink:href="#ab"/><use transform="matrix(0.021701388888888888,0,0,0.021701388888888888,80.01302083333333,0)" xlink:href="#af"/><use transform="matrix(0.021701388888888888,0,0,0.021701388888888888,106.68402777777777,0)" xlink:href="#aa"/><use transform="matrix(0.021701388888888888,0,0,0.021701388888888888,133.35503472222223,0)" xlink:href="#X"/><use transform="matrix(0.021701388888888888,0,0,0.021701388888888888,160.02604166666669,0)" xlink:href="#V"/></g><g id="O"><use transform="matrix(0.021701388888888888,0,0,0.021701388888888888,0,0)" xlink:href="#W"/><use transform="matrix(0.021701388888888888,0,0,0.021701388888888888,26.671006944444443,0)" xlink:href="#X"/><use transform="matrix(0.021701388888888888,0,0,0.021701388888888888,53.342013888888886,0)" xlink:href="#aM"/><use transform="matrix(0.021701388888888888,0,0,0.021701388888888888,80.01302083333333,0)" xlink:href="#af"/><use transform="matrix(0.021701388888888888,0,0,0.021701388888888888,106.68402777777777,0)" xlink:href="#T"/><use transform="matrix(0.021701388888888888,0,0,0.021701388888888888,133.35503472222223,0)" xlink:href="#U"/><use transform="matrix(0.021701388888888888,0,0,0.021701388888888888,160.02604166666669,0)" xlink:href="#X"/><use transform="matrix(0.021701388888888888,0,0,0.021701388888888888,186.69704861111114,0)" xlink:href="#V"/><use transform="matrix(0.021701388888888888,0,0,0.021701388888888888,213.3680555555556,0)" xlink:href="#ac"/><use transform="matrix(0.021701388888888888,0,0,0.021701388888888888,240.03906250000006,0)" xlink:href="#aK"/></g><g id="P"><use transform="matrix(0.021701388888888888,0,0,0.021701388888888888,0,0)" xlink:href="#Y"/><use transform="matrix(0.021701388888888888,0,0,0.021701388888888888,26.671006944444443,0)" xlink:href="#S"/><use transform="matrix(0.021701388888888888,0,0,0.021701388888888888,53.342013888888886,0)" xlink:href="#T"/><use transform="matrix(0.021701388888888888,0,0,0.021701388888888888,80.01302083333333,0)" xlink:href="#S"/></g><g id="Q"><use transform="matrix(0.021701388888888888,0,0,0.021701388888888888,0,0)" xlink:href="#aI"/><use transform="matrix(0.021701388888888888,0,0,0.021701388888888888,26.671006944444443,0)" xlink:href="#aQ"/><use transform="matrix(0.021701388888888888,0,0,0.021701388888888888,53.342013888888886,0)" xlink:href="#ab"/><use transform="matrix(0.021701388888888888,0,0,0.021701388888888888,80.01302083333333,0)" xlink:href="#ad"/><use transform="matrix(0.021701388888888888,0,0,0.021701388888888888,106.68402777777777,0)" xlink:href="#U"/><use transform="matrix(0.021701388888888888,0,0,0.021701388888888888,133.35503472222223,0)" xlink:href="#X"/><use transform="matrix(0.021701388888888888,0,0,0.021701388888888888,160.02604166666669,0)" xlink:href="#aa"/><use transform="matrix(0.021701388888888888,0,0,0.021701388888888888,186.69704861111114,0)" xlink:href="#aK"/></g></defs></g></svg>